# xmcd
#
# Track frame offsets:
#	150
#	13850
#	26715
#	40692
#	54107
#	67515
#	79945
#	93032
#	106822
#	121140
#	133935
#	147640
#	160310
#	173837
#	186667
#	201275
#	214495
#	227812
#	240585
#	253540
#	265092
#	278345
#	291302
#	303480
#	315115
#	328825
#
# Disc length: 4558 seconds
# Revision: 2
# Processed by: cddbd v1.5.2PL0 Copyright (c) Steve Scherf et al.
# Submitted via: dBpowerAMP V12.0
#
DISCID=7011cc1a
DTITLE=B.B. King - The RPM Hits 1951-1957
DYEAR=1999
DGENRE=Blues
TTITLE0=Three O'Clock Blues
TTITLE1=Please Love me
TTITLE2=You Know I Love You
TTITLE3=Woke up This Morning
TTITLE4=Story From my Heart and Soul
TTITLE5=Please Hurry Home
TTITLE6=Bad Luck
TTITLE7=You Upset me Baby
TTITLE8=Whole Lotta' Love
TTITLE9=Every Day (I Have The Blues)
TTITLE10=Sneakin' Around
TTITLE11=Ten Long Years
TTITLE12=Crying Won't Help You
TTITLE13=I Want to Get Married
TTITLE14=Sweet Little Angel
TTITLE15=Troubles, Troubles, Troubles
TTITLE16=I Need You so Bad
TTITLE17=I Wonder
TTITLE18=Be Careful With a Fool
TTITLE19=(I'm Gonna) Quit my Baby
TTITLE20=On my Word of Honor
TTITLE21=I'm Cracking up Over You
TTITLE22=Shut Your Mouth
TTITLE23=Did You Ever Love a Woman
TTITLE24=Blind Love
TTITLE25=When my Heart Beats Like a Hammer
EXTD=
EXTT0=
EXTT1=
EXTT2=
EXTT3=
EXTT4=
EXTT5=
EXTT6=
EXTT7=
EXTT8=
EXTT9=
EXTT10=
EXTT11=
EXTT12=
EXTT13=
EXTT14=
EXTT15=
EXTT16=
EXTT17=
EXTT18=
EXTT19=
EXTT20=
EXTT21=
EXTT22=
EXTT23=
EXTT24=
EXTT25=
PLAYORDER=
